HIERARCHY
ROOT pelvis
{
  OFFSET 0 100 0
  CHANNELS 6 Xposition Yposition Zposition Zrotation Xrotation Yrotation
  JOINT pelvis_right_femur
  {
    OFFSET -10.78128 -3.44521 -0.5502486
    CHANNELS 3 Zrotation Xrotation Yrotation
    JOINT right_femur_tibia
    {
      OFFSET -0.8047443 -44.0398 -0.1307829
      CHANNELS 3 Zrotation Xrotation Yrotation
      JOINT right_tibia_foot
      {
        OFFSET 3.006224 -47.83518 -5
        CHANNELS 3 Zrotation Xrotation Yrotation
        End Site
        {
          OFFSET 0 -5 15
        }
      }
    }
  }
  JOINT pelvis_left_femur
  {
    OFFSET 10.78128 -3.44521 -0.5502486
    CHANNELS 3 Zrotation Xrotation Yrotation
    JOINT left_femur_tibia
    {
      OFFSET 0.8047443 -44.0398 -0.1307829
      CHANNELS 3 Zrotation Xrotation Yrotation
      JOINT left_tibia_foot
      {
        OFFSET -4.370144 -48.10324 -4.275266
        CHANNELS 3 Zrotation Xrotation Yrotation
        End Site
        {
          OFFSET 0 -5 15
        }
      }
    }
  }
  JOINT pelvis_spine1
  {
    OFFSET 0 6.468898 -3.129235
    CHANNELS 3 Zrotation Xrotation Yrotation
    JOINT spine1
    {
      OFFSET 0 23.15396 4.99043
      CHANNELS 3 Zrotation Xrotation Yrotation
      JOINT spine2
      {
        OFFSET 0 20.79997 -5.064912
        CHANNELS 3 Zrotation Xrotation Yrotation
        JOINT neck
        {
          OFFSET 0 14.38658 9.616178
          CHANNELS 3 Zrotation Xrotation Yrotation
          End Site
          {
            OFFSET 0 20 0
          }
        }
      }
      JOINT right_manubrium
      {
        OFFSET -5.722621 16.35077 3.967754
        CHANNELS 3 Zrotation Xrotation Yrotation
        JOINT right_clavicle
        {
          OFFSET -13.16364 1.694482 -4.693211
          CHANNELS 3 Zrotation Xrotation Yrotation
          JOINT right_humerus
          {
            OFFSET -28.5034 -0.3100689 -2.792744
            CHANNELS 3 Zrotation Xrotation Yrotation
            JOINT right_radius
            {
              OFFSET -25.15693 0.02248979 -1.271978
              CHANNELS 3 Zrotation Xrotation Yrotation
              End Site
              {
                OFFSET -15 0 0
              }
            }
          }
        }
      }
      JOINT left_manubrium
      {
        OFFSET 5.722621 16.35077 3.967754
        CHANNELS 3 Zrotation Xrotation Yrotation
        JOINT left_clavicle
        {
          OFFSET 13.16364 1.694482 -4.693211
          CHANNELS 3 Zrotation Xrotation Yrotation
          JOINT left_humerus
          {
            OFFSET 29.39168 -1.063119 -2.237045
            CHANNELS 3 Zrotation Xrotation Yrotation
            JOINT left_radius
            {
              OFFSET 24.59957 -0.9528479 0.9047498
              CHANNELS 3 Zrotation Xrotation Yrotation
              End Site
              {
                OFFSET 15 -0 -0
              }
            }
          }
        }
      }
    }
  }
}
MOTION
Frames: 11
Frame Time: 0.0416666666667
0 103.5113 0 2.812875 -2.06635 0.3361959 0.4385597 -10.11082 7.083965 -0 35.79242 -0 -4.678463 -19.55088 -3.200859 -8.241427 11.61423 -24.35161 -0 3.40287 -0 7.370112 -16.04151 25.48723 -1.994903 -2.788541 6.192048 2.162001 10.13152 -6.471359 1.960687 22.45728 5.015838 1.851014 -24.71935 9.402496 6.067724 -19.59557 9.978935 84.65857 36.89682 -17.62884 -0 0 15.33243 -5.008534 8.399587 2.616273 5.430737 -20.25431 -1.510779 -96.19395 26.10424 25.51152 0 0 -13.34751 11.1683 17.72518 2.949355
0.266014 103.3961 1.384442 2.096648 -0.7142147 0.3994248 1.842379 -13.12533 8.979587 -0 36.52903 -0 -3.474635 -18.29505 -3.647796 -7.819391 11.24455 -23.82893 -0 3.912659 -0 7.143868 -16.57161 25.93667 -2.016131 -2.801092 6.319449 2.050145 10.11695 -6.305753 1.988681 22.59702 4.880695 1.758422 -24.51867 9.346119 6.024714 -19.67666 9.876095 84.42957 37.05738 -17.22021 -0 0 15.51001 -5.032155 8.356368 2.683637 5.334962 -20.14753 -1.552524 -96.34246 26.25471 25.78382 0 0 -13.14521 11.1185 17.83018 3.088661
0.5384871 103.2176 3.04825 1.104165 -0.2301379 0.4149801 3.476043 -17.44718 8.864568 -0 35.27542 -0 -4.225374 -15.22268 -3.593293 -7.027935 11.50835 -22.64187 -0 4.735006 -0 5.895764 -18.26335 25.13247 -1.969935 -2.604399 5.90699 2.426233 10.22456 -6.858428 1.81031 22.13738 5.31069 2.027752 -25.11988 9.378718 5.97014 -19.415 10.29646 85.35972 36.58462 -18.50894 -0 0 14.63647 -5.328788 8.434289 2.906873 5.485608 -20.45618 -1.564127 -95.26116 25.62884 24.4316 0 0 -14.51266 11.27927 16.68343 2.589691
0.8142988 102.979 4.928224 0.3311582 0.5225105 0.3803812 4.888272 -21.28852 9.214866 -0 33.77193 -0 -4.505989 -13.24639 -3.618569 -6.514095 11.54753 -21.8246 -0 5.149013 -0 5.523787 -19.53006 24.84764 -1.944759 -2.503107 5.67315 2.637405 10.2516 -7.15965 1.709565 21.87687 5.565251 2.176578 -25.46196 9.418733 5.922416 -19.26792 10.52017 85.8539 36.3444 -19.18718 -0 0 14.16647 -5.488104 8.481751 3.043504 5.587708 -20.63013 -1.544155 -94.65559 25.2542 23.66703 0 0 -15.3069 11.40701 16.05739 2.265853
1.097747 102.5642 7.103708 -0.2521988 1.181885 0.354804 5.954967 -25.06933 8.836436 -0 30.87855 -0 -5.128279 -11.27555 -3.321916 -6.177129 11.75568 -20.95426 -0 5.365029 -0 5.654258 -20.73903 24.40457 -1.918572 -2.366154 5.379616 2.902219 10.26063 -7.523588 1.572564 21.55452 5.897531 2.353142 -25.89508 9.481603 5.825583 -19.089 10.79634 86.47023 36.09327 -19.98601 -0 0 13.55943 -5.70462 8.526644 3.275114 5.7053 -20.83803 -1.520708 -93.83454 24.7522 22.66491 0 0 -16.41998 11.62083 15.19175 1.803132
1.385333 101.9543 9.626023 -0.6785234 1.873128 0.3859517 6.736959 -28.56234 8.221055 -0 27.34818 -0 -5.729424 -9.42045 -2.893549 -5.98112 12.08993 -20.14206 -0 5.653457 -0 5.886765 -21.82113 23.83335 -1.88869 -2.240794 5.106104 3.13817 10.24526 -7.849574 1.443737 21.24897 6.21646 2.523417 -26.26828 9.541262 5.720413 -18.91263 11.04274 87.02132 35.87693 -20.68917 -0 0 13.00718 -5.946515 8.597047 3.523473 5.837468 -21.04141 -1.482661 -93.05921 24.25151 21.70572 0 0 -17.49524 11.81627 14.3871 1.376631
1.671653 101.1592 12.57581 -0.9670781 2.531978 0.5283178 7.208001 -31.64293 7.290369 -0 23.40535 -0 -6.364045 -7.469883 -2.313674 -5.88746 12.63155 -19.29678 -0 6.330972 -0 5.997021 -22.67469 22.94464 -1.853464 -2.109401 4.831911 3.360831 10.21538 -8.163075 1.310322 20.93981 6.542657 2.699663 -26.59898 9.590514 5.597053 -18.72269 11.28192 87.56515 35.68081 -21.36096 -0 0 12.44693 -6.253397 8.699894 3.824435 5.984108 -21.25754 -1.444305 -92.24747 23.71451 20.69714 0 0 -18.64321 11.99671 13.54908 0.9699484
1.950993 100.2499 16.03546 -1.183858 3.144009 0.8296519 7.471995 -34.123 6.255399 -0 19.61107 -0 -6.964807 -5.413254 -1.67874 -5.826386 13.36233 -18.39615 -0 7.756405 -0 5.664802 -23.1544 21.6167 -1.812408 -1.979334 4.574661 3.550288 10.18366 -8.447176 1.182159 20.64579 6.848461 2.875043 -26.84164 9.609017 5.469901 -18.52212 11.49892 88.07343 35.50187 -21.97345 -0 0 11.9082 -6.636829 8.848083 4.16148 6.140032 -21.48414 -1.415041 -91.45097 23.1777 19.69151 0 0 -19.78048 12.11483 12.73882 0.648931
2.218694 99.34948 20.08791 -1.403437 3.666421 1.31847 7.663443 -35.74755 5.304568 -0 16.48371 -0 -7.492105 -3.312989 -1.081835 -5.717561 14.2123 -17.37937 -0 10.30519 -0 4.60716 -23.03057 19.71278 -1.76863 -1.84989 4.347407 3.693966 10.16914 -8.691563 1.06352 20.38531 7.111229 3.040583 -26.96708 9.578327 5.348482 -18.31596 11.68713 88.53961 35.34111 -22.51572 -0 0 11.3951 -7.106511 9.040993 4.530448 6.286164 -21.716 -1.417991 -90.68965 22.67459 18.72022 0 0 -20.86582 12.13985 11.97178 0.4610984
2.473153 98.62727 24.79563 -1.716003 4.065707 1.982299 7.973043 -36.20964 4.698253 -0 14.51607 -0 -7.872175 -1.410683 -0.6587212 -5.466238 14.98479 -16.1969 -0 14.30755 -0 2.624487 -22.01056 17.20064 -1.728196 -1.722562 4.173856 3.773286 10.19812 -8.876655 0.9623279 20.18879 7.295902 3.180425 -26.94008 9.477189 5.248497 -18.11959 11.83542 88.9414 35.20156 -22.957 -0 0 10.92863 -7.659518 9.268041 4.916632 6.390202 -21.93632 -1.484293 -90.00799 22.263 17.85445 0 0 -21.81386 12.03398 11.28152 0.4693768
2.71791 98.27005 30.17036 -2.194826 4.300369 2.736882 8.548303 -35.18996 4.636199 -0 13.99013 -0 -8.043836 -0.1173758 -0.5475407 -4.987555 15.32078 -14.81276 -0 19.97965 -0 -0.2074531 -19.78841 14.27464 -1.700293 -1.596885 4.083094 3.769236 10.29847 -8.976867 0.8854709 20.09086 7.367816 3.276166 -26.73475 9.289372 5.184991 -17.95937 11.93473 89.24729 35.09255 -23.24919 -0 0 10.53907 -8.283688 9.504843 5.309251 6.408161 -22.11514 -1.650306 -89.45343 22.00762 17.18727 0 0 -22.53121 11.76895 10.68799 0.7293579
